<?xml version="1.0" encoding="UTF-8" standalone="no"?>
<!DOCTYPE svg PUBLIC "-//W3C//DTD SVG 1.1//EN"
 "http://www.w3.org/Graphics/SVG/1.1/DTD/svg11.dtd">
<!-- Generated by graphviz version 2.47.0 (20210316.0004)
 -->
<!-- Title: dependencies Pages: 1 -->
<svg width="3258pt" height="284pt"
 viewBox="0.00 0.00 3258.00 284.00" xmlns="http://www.w3.org/2000/svg" xmlns:xlink="http://www.w3.org/1999/xlink">
<g id="graph0" class="graph" transform="scale(1 1) rotate(0) translate(4 280)">
<title>dependencies</title>
<polygon fill="white" stroke="transparent" points="-4,4 -4,-280 3254,-280 3254,4 -4,4"/>
<text text-anchor="start" x="1604.01" y="-42.4" font-family="sans-serif" font-weight="bold" font-size="14.00">Legend</text>
<polygon fill="#ffffb3" stroke="transparent" points="1391,-10 1391,-30 1411,-30 1411,-10 1391,-10"/>
<text text-anchor="start" x="1414.63" y="-15.4" font-family="sans-serif" font-size="14.00"> &#160;Declarations</text>
<polygon fill="#8dd3c7" stroke="transparent" points="1504,-10 1504,-30 1524,-30 1524,-10 1504,-10"/>
<text text-anchor="start" x="1527.73" y="-15.4" font-family="sans-serif" font-size="14.00"> &#160;Module</text>
<polygon fill="#80b1d3" stroke="transparent" points="1590,-10 1590,-30 1610,-30 1610,-10 1590,-10"/>
<text text-anchor="start" x="1613.78" y="-15.4" font-family="sans-serif" font-size="14.00"> &#160;Bootstrap</text>
<polygon fill="#fdb462" stroke="transparent" points="1687,-10 1687,-30 1707,-30 1707,-10 1687,-10"/>
<text text-anchor="start" x="1710.67" y="-15.4" font-family="sans-serif" font-size="14.00"> &#160;Providers</text>
<polygon fill="#fb8072" stroke="transparent" points="1783,-10 1783,-30 1803,-30 1803,-10 1783,-10"/>
<text text-anchor="start" x="1806.73" y="-15.4" font-family="sans-serif" font-size="14.00"> &#160;Exports</text>
<g id="clust1" class="cluster">
<title>cluster_AppModule</title>
<polygon fill="none" stroke="black" stroke-dasharray="1,5" points="8,-70 8,-268 3242,-268 3242,-70 8,-70"/>
</g>
<g id="clust2" class="cluster">
<title>cluster_AppModule_declarations</title>
<polygon fill="none" stroke="black" points="346,-78 346,-130 3234,-130 3234,-78 346,-78"/>
</g>
<g id="clust20" class="cluster">
<title>cluster_AppModule_imports</title>
<polygon fill="none" stroke="black" points="16,-78 16,-130 338,-130 338,-78 16,-78"/>
</g>
<g id="clust22" class="cluster">
<title>cluster_AppModule_bootstrap</title>
<polygon fill="none" stroke="black" points="1665,-208 1665,-260 1789,-260 1789,-208 1665,-208"/>
</g>
<!-- AboutComponent -->
<g id="node1" class="node">
<title>AboutComponent</title>
<polygon fill="#ffffb3" stroke="black" points="3226.33,-122 3109.67,-122 3109.67,-86 3226.33,-86 3226.33,-122"/>
<text text-anchor="middle" x="3168" y="-99.8" font-family="Times,serif" font-size="14.00">AboutComponent</text>
</g>
<!-- AppModule -->
<g id="node18" class="node">
<title>AppModule</title>
<polygon fill="#8dd3c7" stroke="black" points="1768.66,-187 1765.66,-191 1744.66,-191 1741.66,-187 1685.34,-187 1685.34,-151 1768.66,-151 1768.66,-187"/>
<text text-anchor="middle" x="1727" y="-164.8" font-family="Times,serif" font-size="14.00">AppModule</text>
</g>
<!-- AboutComponent&#45;&gt;AppModule -->
<g id="edge1" class="edge">
<title>AboutComponent&#45;&gt;AppModule</title>
<path fill="none" stroke="black" d="M3168,-122.15C3168,-145.76 3168,-184 3168,-184 3168,-184 1778.96,-184 1778.96,-184"/>
<polygon fill="black" stroke="black" points="1778.96,-180.5 1768.96,-184 1778.96,-187.5 1778.96,-180.5"/>
</g>
<!-- AllStationsComponent -->
<g id="node2" class="node">
<title>AllStationsComponent</title>
<polygon fill="#ffffb3" stroke="black" points="3092.33,-122 2947.67,-122 2947.67,-86 3092.33,-86 3092.33,-122"/>
<text text-anchor="middle" x="3020" y="-99.8" font-family="Times,serif" font-size="14.00">AllStationsComponent</text>
</g>
<!-- AllStationsComponent&#45;&gt;AppModule -->
<g id="edge2" class="edge">
<title>AllStationsComponent&#45;&gt;AppModule</title>
<path fill="none" stroke="black" d="M3020,-122.01C3020,-144.49 3020,-180 3020,-180 3020,-180 1778.92,-180 1778.92,-180"/>
<polygon fill="black" stroke="black" points="1778.92,-176.5 1768.92,-180 1778.92,-183.5 1778.92,-176.5"/>
</g>
<!-- AppComponent -->
<g id="node3" class="node">
<title>AppComponent</title>
<polygon fill="#ffffb3" stroke="black" points="2929.94,-122 2824.06,-122 2824.06,-86 2929.94,-86 2929.94,-122"/>
<text text-anchor="middle" x="2877" y="-99.8" font-family="Times,serif" font-size="14.00">AppComponent</text>
</g>
<!-- AppComponent&#45;&gt;AppModule -->
<g id="edge3" class="edge">
<title>AppComponent&#45;&gt;AppModule</title>
<path fill="none" stroke="black" d="M2877,-122.04C2877,-143.66 2877,-177 2877,-177 2877,-177 1778.95,-177 1778.95,-177"/>
<polygon fill="black" stroke="black" points="1778.95,-173.5 1768.95,-177 1778.95,-180.5 1778.95,-173.5"/>
</g>
<!-- CalamityItemComponent -->
<g id="node4" class="node">
<title>CalamityItemComponent</title>
<polygon fill="#ffffb3" stroke="black" points="2806.32,-122 2647.68,-122 2647.68,-86 2806.32,-86 2806.32,-122"/>
<text text-anchor="middle" x="2727" y="-99.8" font-family="Times,serif" font-size="14.00">CalamityItemComponent</text>
</g>
<!-- CalamityItemComponent&#45;&gt;AppModule -->
<g id="edge4" class="edge">
<title>CalamityItemComponent&#45;&gt;AppModule</title>
<path fill="none" stroke="black" d="M2727,-122.13C2727,-142.57 2727,-173 2727,-173 2727,-173 1778.7,-173 1778.7,-173"/>
<polygon fill="black" stroke="black" points="1778.7,-169.5 1768.7,-173 1778.7,-176.5 1778.7,-169.5"/>
</g>
<!-- DisruptionItemComponent -->
<g id="node5" class="node">
<title>DisruptionItemComponent</title>
<polygon fill="#ffffb3" stroke="black" points="2629.37,-122 2462.63,-122 2462.63,-86 2629.37,-86 2629.37,-122"/>
<text text-anchor="middle" x="2546" y="-99.8" font-family="Times,serif" font-size="14.00">DisruptionItemComponent</text>
</g>
<!-- DisruptionItemComponent&#45;&gt;AppModule -->
<g id="edge5" class="edge">
<title>DisruptionItemComponent&#45;&gt;AppModule</title>
<path fill="none" stroke="black" d="M2546,-122.11C2546,-141.34 2546,-169 2546,-169 2546,-169 1778.74,-169 1778.74,-169"/>
<polygon fill="black" stroke="black" points="1778.74,-165.5 1768.74,-169 1778.74,-172.5 1778.74,-165.5"/>
</g>
<!-- HeaderComponent -->
<g id="node6" class="node">
<title>HeaderComponent</title>
<polygon fill="#ffffb3" stroke="black" points="2444.74,-122 2323.26,-122 2323.26,-86 2444.74,-86 2444.74,-122"/>
<text text-anchor="middle" x="2384" y="-99.8" font-family="Times,serif" font-size="14.00">HeaderComponent</text>
</g>
<!-- HeaderComponent&#45;&gt;AppModule -->
<g id="edge6" class="edge">
<title>HeaderComponent&#45;&gt;AppModule</title>
<path fill="none" stroke="black" d="M2384,-122.27C2384,-140.56 2384,-166 2384,-166 2384,-166 1778.85,-166 1778.85,-166"/>
<polygon fill="black" stroke="black" points="1778.85,-162.5 1768.85,-166 1778.85,-169.5 1778.85,-162.5"/>
</g>
<!-- MainLayoutComponent -->
<g id="node7" class="node">
<title>MainLayoutComponent</title>
<polygon fill="#ffffb3" stroke="black" points="2305.04,-122 2154.96,-122 2154.96,-86 2305.04,-86 2305.04,-122"/>
<text text-anchor="middle" x="2230" y="-99.8" font-family="Times,serif" font-size="14.00">MainLayoutComponent</text>
</g>
<!-- MainLayoutComponent&#45;&gt;AppModule -->
<g id="edge7" class="edge">
<title>MainLayoutComponent&#45;&gt;AppModule</title>
<path fill="none" stroke="black" d="M2230,-122.03C2230,-139.06 2230,-162 2230,-162 2230,-162 1779.02,-162 1779.02,-162"/>
<polygon fill="black" stroke="black" points="1779.02,-158.5 1769.02,-162 1779.02,-165.5 1779.02,-158.5"/>
</g>
<!-- NgInitDirective -->
<g id="node8" class="node">
<title>NgInitDirective</title>
<polygon fill="#ffffb3" stroke="black" points="2136.13,-122 2031.87,-122 2031.87,-86 2136.13,-86 2136.13,-122"/>
<text text-anchor="middle" x="2084" y="-99.8" font-family="Times,serif" font-size="14.00">NgInitDirective</text>
</g>
<!-- NgInitDirective&#45;&gt;AppModule -->
<g id="edge8" class="edge">
<title>NgInitDirective&#45;&gt;AppModule</title>
<path fill="none" stroke="black" d="M2084,-122.01C2084,-138.05 2084,-159 2084,-159 2084,-159 1779,-159 1779,-159"/>
<polygon fill="black" stroke="black" points="1779,-155.5 1769,-159 1779,-162.5 1779,-155.5"/>
</g>
<!-- NgbdSortableHeaderDirective -->
<g id="node9" class="node">
<title>NgbdSortableHeaderDirective</title>
<polygon fill="#ffffb3" stroke="black" points="2014.25,-122 1827.75,-122 1827.75,-86 2014.25,-86 2014.25,-122"/>
<text text-anchor="middle" x="1921" y="-99.8" font-family="Times,serif" font-size="14.00">NgbdSortableHeaderDirective</text>
</g>
<!-- NgbdSortableHeaderDirective&#45;&gt;AppModule -->
<g id="edge9" class="edge">
<title>NgbdSortableHeaderDirective&#45;&gt;AppModule</title>
<path fill="none" stroke="black" d="M1921,-122.12C1921,-136.78 1921,-155 1921,-155 1921,-155 1779.1,-155 1779.1,-155"/>
<polygon fill="black" stroke="black" points="1779.1,-151.5 1769.1,-155 1779.1,-158.5 1779.1,-151.5"/>
</g>
<!-- PageNotFoundComponent -->
<g id="node10" class="node">
<title>PageNotFoundComponent</title>
<polygon fill="#ffffb3" stroke="black" points="1809.82,-122 1644.18,-122 1644.18,-86 1809.82,-86 1809.82,-122"/>
<text text-anchor="middle" x="1727" y="-99.8" font-family="Times,serif" font-size="14.00">PageNotFoundComponent</text>
</g>
<!-- PageNotFoundComponent&#45;&gt;AppModule -->
<g id="edge10" class="edge">
<title>PageNotFoundComponent&#45;&gt;AppModule</title>
<path fill="none" stroke="black" d="M1727,-122.11C1727,-122.11 1727,-140.99 1727,-140.99"/>
<polygon fill="black" stroke="black" points="1723.5,-140.99 1727,-150.99 1730.5,-140.99 1723.5,-140.99"/>
</g>
<!-- RideInformationComponent -->
<g id="node11" class="node">
<title>RideInformationComponent</title>
<polygon fill="#ffffb3" stroke="black" points="1626.14,-122 1451.86,-122 1451.86,-86 1626.14,-86 1626.14,-122"/>
<text text-anchor="middle" x="1539" y="-99.8" font-family="Times,serif" font-size="14.00">RideInformationComponent</text>
</g>
<!-- RideInformationComponent&#45;&gt;AppModule -->
<g id="edge11" class="edge">
<title>RideInformationComponent&#45;&gt;AppModule</title>
<path fill="none" stroke="black" d="M1539,-122.12C1539,-136.78 1539,-155 1539,-155 1539,-155 1675.28,-155 1675.28,-155"/>
<polygon fill="black" stroke="black" points="1675.28,-158.5 1685.28,-155 1675.28,-151.5 1675.28,-158.5"/>
</g>
<!-- StationPopupComponent -->
<g id="node12" class="node">
<title>StationPopupComponent</title>
<polygon fill="#ffffb3" stroke="black" points="1433.28,-122 1276.72,-122 1276.72,-86 1433.28,-86 1433.28,-122"/>
<text text-anchor="middle" x="1355" y="-99.8" font-family="Times,serif" font-size="14.00">StationPopupComponent</text>
</g>
<!-- StationPopupComponent&#45;&gt;AppModule -->
<g id="edge12" class="edge">
<title>StationPopupComponent&#45;&gt;AppModule</title>
<path fill="none" stroke="black" d="M1355,-122.01C1355,-138.05 1355,-159 1355,-159 1355,-159 1675.05,-159 1675.05,-159"/>
<polygon fill="black" stroke="black" points="1675.05,-162.5 1685.05,-159 1675.05,-155.5 1675.05,-162.5"/>
</g>
<!-- ToastsContainerComponent -->
<g id="node13" class="node">
<title>ToastsContainerComponent</title>
<polygon fill="#ffffb3" stroke="black" points="1258.59,-122 1085.41,-122 1085.41,-86 1258.59,-86 1258.59,-122"/>
<text text-anchor="middle" x="1172" y="-99.8" font-family="Times,serif" font-size="14.00">ToastsContainerComponent</text>
</g>
<!-- ToastsContainerComponent&#45;&gt;AppModule -->
<g id="edge13" class="edge">
<title>ToastsContainerComponent&#45;&gt;AppModule</title>
<path fill="none" stroke="black" d="M1172,-122.03C1172,-139.06 1172,-162 1172,-162 1172,-162 1675.28,-162 1675.28,-162"/>
<polygon fill="black" stroke="black" points="1675.28,-165.5 1685.28,-162 1675.28,-158.5 1675.28,-165.5"/>
</g>
<!-- TrainMapComponent -->
<g id="node14" class="node">
<title>TrainMapComponent</title>
<polygon fill="#ffffb3" stroke="black" points="1067.81,-122 930.19,-122 930.19,-86 1067.81,-86 1067.81,-122"/>
<text text-anchor="middle" x="999" y="-99.8" font-family="Times,serif" font-size="14.00">TrainMapComponent</text>
</g>
<!-- TrainMapComponent&#45;&gt;AppModule -->
<g id="edge14" class="edge">
<title>TrainMapComponent&#45;&gt;AppModule</title>
<path fill="none" stroke="black" d="M999,-122.27C999,-140.56 999,-166 999,-166 999,-166 1675.24,-166 1675.24,-166"/>
<polygon fill="black" stroke="black" points="1675.24,-169.5 1685.24,-166 1675.24,-162.5 1675.24,-169.5"/>
</g>
<!-- TrainMapSidebarComponent -->
<g id="node15" class="node">
<title>TrainMapSidebarComponent</title>
<polygon fill="#ffffb3" stroke="black" points="912.07,-122 731.93,-122 731.93,-86 912.07,-86 912.07,-122"/>
<text text-anchor="middle" x="822" y="-99.8" font-family="Times,serif" font-size="14.00">TrainMapSidebarComponent</text>
</g>
<!-- TrainMapSidebarComponent&#45;&gt;AppModule -->
<g id="edge15" class="edge">
<title>TrainMapSidebarComponent&#45;&gt;AppModule</title>
<path fill="none" stroke="black" d="M822,-122.11C822,-141.34 822,-169 822,-169 822,-169 1675.17,-169 1675.17,-169"/>
<polygon fill="black" stroke="black" points="1675.17,-172.5 1685.17,-169 1675.16,-165.5 1675.17,-172.5"/>
</g>
<!-- TrainPopupComponent -->
<g id="node16" class="node">
<title>TrainPopupComponent</title>
<polygon fill="#ffffb3" stroke="black" points="713.93,-122 566.07,-122 566.07,-86 713.93,-86 713.93,-122"/>
<text text-anchor="middle" x="640" y="-99.8" font-family="Times,serif" font-size="14.00">TrainPopupComponent</text>
</g>
<!-- TrainPopupComponent&#45;&gt;AppModule -->
<g id="edge16" class="edge">
<title>TrainPopupComponent&#45;&gt;AppModule</title>
<path fill="none" stroke="black" d="M640,-122.13C640,-142.57 640,-173 640,-173 640,-173 1675.05,-173 1675.05,-173"/>
<polygon fill="black" stroke="black" points="1675.05,-176.5 1685.05,-173 1675.05,-169.5 1675.05,-176.5"/>
</g>
<!-- TrainsetInformationComponent -->
<g id="node17" class="node">
<title>TrainsetInformationComponent</title>
<polygon fill="#ffffb3" stroke="black" points="548.07,-122 353.93,-122 353.93,-86 548.07,-86 548.07,-122"/>
<text text-anchor="middle" x="451" y="-99.8" font-family="Times,serif" font-size="14.00">TrainsetInformationComponent</text>
</g>
<!-- TrainsetInformationComponent&#45;&gt;AppModule -->
<g id="edge17" class="edge">
<title>TrainsetInformationComponent&#45;&gt;AppModule</title>
<path fill="none" stroke="black" d="M451,-122.04C451,-143.66 451,-177 451,-177 451,-177 1675.27,-177 1675.27,-177"/>
<polygon fill="black" stroke="black" points="1675.27,-180.5 1685.27,-177 1675.27,-173.5 1675.27,-180.5"/>
</g>
<!-- AppComponent  -->
<g id="node21" class="node">
<title>AppComponent </title>
<polygon fill="#80b1d3" stroke="black" points="1781.44,-252 1672.56,-252 1672.56,-216 1781.44,-216 1781.44,-252"/>
<text text-anchor="middle" x="1727" y="-229.8" font-family="Times,serif" font-size="14.00">AppComponent </text>
</g>
<!-- AppModule&#45;&gt;AppComponent  -->
<g id="edge20" class="edge">
<title>AppModule&#45;&gt;AppComponent </title>
<path fill="none" stroke="black" stroke-dasharray="1,5" d="M1727,-187.11C1727,-187.11 1727,-205.99 1727,-205.99"/>
<polygon fill="black" stroke="black" points="1723.5,-205.99 1727,-215.99 1730.5,-205.99 1723.5,-205.99"/>
</g>
<!-- AppRoutingModule -->
<g id="node19" class="node">
<title>AppRoutingModule</title>
<polygon fill="#8dd3c7" stroke="black" points="330.27,-122 327.27,-126 306.27,-126 303.27,-122 201.73,-122 201.73,-86 330.27,-86 330.27,-122"/>
<text text-anchor="middle" x="266" y="-99.8" font-family="Times,serif" font-size="14.00">AppRoutingModule</text>
</g>
<!-- AppRoutingModule&#45;&gt;AppModule -->
<g id="edge18" class="edge">
<title>AppRoutingModule&#45;&gt;AppModule</title>
<path fill="none" stroke="black" d="M266,-122.01C266,-144.49 266,-180 266,-180 266,-180 1675.24,-180 1675.24,-180"/>
<polygon fill="black" stroke="black" points="1675.24,-183.5 1685.24,-180 1675.24,-176.5 1675.24,-183.5"/>
</g>
<!-- TrainMapModuleModule -->
<g id="node20" class="node">
<title>TrainMapModuleModule</title>
<polygon fill="#8dd3c7" stroke="black" points="183.58,-122 180.58,-126 159.58,-126 156.58,-122 24.42,-122 24.42,-86 183.58,-86 183.58,-122"/>
<text text-anchor="middle" x="104" y="-99.8" font-family="Times,serif" font-size="14.00">TrainMapModuleModule</text>
</g>
<!-- TrainMapModuleModule&#45;&gt;AppModule -->
<g id="edge19" class="edge">
<title>TrainMapModuleModule&#45;&gt;AppModule</title>
<path fill="none" stroke="black" d="M104,-122.15C104,-145.76 104,-184 104,-184 104,-184 1675.25,-184 1675.25,-184"/>
<polygon fill="black" stroke="black" points="1675.25,-187.5 1685.25,-184 1675.25,-180.5 1675.25,-187.5"/>
</g>
</g>
</svg>
