<?xml version="1.0" encoding="UTF-8" standalone="no"?>
<!DOCTYPE svg PUBLIC "-//W3C//DTD SVG 1.1//EN"
 "http://www.w3.org/Graphics/SVG/1.1/DTD/svg11.dtd">
<!-- Generated by graphviz version 2.47.0 (20210316.0004)
 -->
<!-- Title: dependencies Pages: 1 -->
<svg width="3258pt" height="284pt"
 viewBox="0.00 0.00 3258.00 284.00" xmlns="http://www.w3.org/2000/svg" xmlns:xlink="http://www.w3.org/1999/xlink">
<g id="graph0" class="graph" transform="scale(1 1) rotate(0) translate(4 280)">
<title>dependencies</title>
<polygon fill="white" stroke="transparent" points="-4,4 -4,-280 3254,-280 3254,4 -4,4"/>
<text text-anchor="start" x="1604.01" y="-42.4" font-family="sans-serif" font-weight="bold" font-size="14.00">Legend</text>
<polygon fill="#ffffb3" stroke="transparent" points="1391,-10 1391,-30 1411,-30 1411,-10 1391,-10"/>
<text text-anchor="start" x="1414.63" y="-15.4" font-family="sans-serif" font-size="14.00"> &#160;Declarations</text>
<polygon fill="#8dd3c7" stroke="transparent" points="1504,-10 1504,-30 1524,-30 1524,-10 1504,-10"/>
<text text-anchor="start" x="1527.73" y="-15.4" font-family="sans-serif" font-size="14.00"> &#160;Module</text>
<polygon fill="#80b1d3" stroke="transparent" points="1590,-10 1590,-30 1610,-30 1610,-10 1590,-10"/>
<text text-anchor="start" x="1613.78" y="-15.4" font-family="sans-serif" font-size="14.00"> &#160;Bootstrap</text>
<polygon fill="#fdb462" stroke="transparent" points="1687,-10 1687,-30 1707,-30 1707,-10 1687,-10"/>
<text text-anchor="start" x="1710.67" y="-15.4" font-family="sans-serif" font-size="14.00"> &#160;Providers</text>
<polygon fill="#fb8072" stroke="transparent" points="1783,-10 1783,-30 1803,-30 1803,-10 1783,-10"/>
<text text-anchor="start" x="1806.73" y="-15.4" font-family="sans-serif" font-size="14.00"> &#160;Exports</text>
<g id="clust1" class="cluster">
<title>cluster_AppModule</title>
<polygon fill="none" stroke="black" stroke-dasharray="1,5" points="8,-70 8,-268 3242,-268 3242,-70 8,-70"/>
</g>
<g id="clust20" class="cluster">
<title>cluster_AppModule_imports</title>
<polygon fill="none" stroke="black" points="2912,-78 2912,-130 3234,-130 3234,-78 2912,-78"/>
</g>
<g id="clust22" class="cluster">
<title>cluster_AppModule_bootstrap</title>
<polygon fill="none" stroke="black" points="1692,-208 1692,-260 1816,-260 1816,-208 1692,-208"/>
</g>
<g id="clust2" class="cluster">
<title>cluster_AppModule_declarations</title>
<polygon fill="none" stroke="black" points="16,-78 16,-130 2904,-130 2904,-78 16,-78"/>
</g>
<!-- AboutComponent -->
<g id="node1" class="node">
<title>AboutComponent</title>
<polygon fill="#ffffb3" stroke="black" points="2896.33,-122 2779.67,-122 2779.67,-86 2896.33,-86 2896.33,-122"/>
<text text-anchor="middle" x="2838" y="-99.8" font-family="Times,serif" font-size="14.00">AboutComponent</text>
</g>
<!-- AppModule -->
<g id="node18" class="node">
<title>AppModule</title>
<polygon fill="#8dd3c7" stroke="black" points="1795.66,-187 1792.66,-191 1771.66,-191 1768.66,-187 1712.34,-187 1712.34,-151 1795.66,-151 1795.66,-187"/>
<text text-anchor="middle" x="1754" y="-164.8" font-family="Times,serif" font-size="14.00">AppModule</text>
</g>
<!-- AboutComponent&#45;&gt;AppModule -->
<g id="edge1" class="edge">
<title>AboutComponent&#45;&gt;AppModule</title>
<path fill="none" stroke="black" d="M2838,-122.04C2838,-143.66 2838,-177 2838,-177 2838,-177 1805.83,-177 1805.83,-177"/>
<polygon fill="black" stroke="black" points="1805.83,-173.5 1795.83,-177 1805.83,-180.5 1805.83,-173.5"/>
</g>
<!-- AllStationsComponent -->
<g id="node2" class="node">
<title>AllStationsComponent</title>
<polygon fill="#ffffb3" stroke="black" points="2762.33,-122 2617.67,-122 2617.67,-86 2762.33,-86 2762.33,-122"/>
<text text-anchor="middle" x="2690" y="-99.8" font-family="Times,serif" font-size="14.00">AllStationsComponent</text>
</g>
<!-- AllStationsComponent&#45;&gt;AppModule -->
<g id="edge2" class="edge">
<title>AllStationsComponent&#45;&gt;AppModule</title>
<path fill="none" stroke="black" d="M2690,-122.13C2690,-142.57 2690,-173 2690,-173 2690,-173 1805.73,-173 1805.73,-173"/>
<polygon fill="black" stroke="black" points="1805.73,-169.5 1795.73,-173 1805.73,-176.5 1805.73,-169.5"/>
</g>
<!-- AppComponent -->
<g id="node3" class="node">
<title>AppComponent</title>
<polygon fill="#ffffb3" stroke="black" points="2599.94,-122 2494.06,-122 2494.06,-86 2599.94,-86 2599.94,-122"/>
<text text-anchor="middle" x="2547" y="-99.8" font-family="Times,serif" font-size="14.00">AppComponent</text>
</g>
<!-- AppComponent&#45;&gt;AppModule -->
<g id="edge3" class="edge">
<title>AppComponent&#45;&gt;AppModule</title>
<path fill="none" stroke="black" d="M2547,-122.11C2547,-141.34 2547,-169 2547,-169 2547,-169 1805.8,-169 1805.8,-169"/>
<polygon fill="black" stroke="black" points="1805.8,-165.5 1795.8,-169 1805.8,-172.5 1805.8,-165.5"/>
</g>
<!-- CalamityItemComponent -->
<g id="node4" class="node">
<title>CalamityItemComponent</title>
<polygon fill="#ffffb3" stroke="black" points="2476.32,-122 2317.68,-122 2317.68,-86 2476.32,-86 2476.32,-122"/>
<text text-anchor="middle" x="2397" y="-99.8" font-family="Times,serif" font-size="14.00">CalamityItemComponent</text>
</g>
<!-- CalamityItemComponent&#45;&gt;AppModule -->
<g id="edge4" class="edge">
<title>CalamityItemComponent&#45;&gt;AppModule</title>
<path fill="none" stroke="black" d="M2397,-122.27C2397,-140.56 2397,-166 2397,-166 2397,-166 1805.69,-166 1805.69,-166"/>
<polygon fill="black" stroke="black" points="1805.69,-162.5 1795.69,-166 1805.69,-169.5 1805.69,-162.5"/>
</g>
<!-- DisruptionItemComponent -->
<g id="node5" class="node">
<title>DisruptionItemComponent</title>
<polygon fill="#ffffb3" stroke="black" points="2299.37,-122 2132.63,-122 2132.63,-86 2299.37,-86 2299.37,-122"/>
<text text-anchor="middle" x="2216" y="-99.8" font-family="Times,serif" font-size="14.00">DisruptionItemComponent</text>
</g>
<!-- DisruptionItemComponent&#45;&gt;AppModule -->
<g id="edge5" class="edge">
<title>DisruptionItemComponent&#45;&gt;AppModule</title>
<path fill="none" stroke="black" d="M2216,-122.03C2216,-139.06 2216,-162 2216,-162 2216,-162 1805.81,-162 1805.81,-162"/>
<polygon fill="black" stroke="black" points="1805.81,-158.5 1795.81,-162 1805.81,-165.5 1805.81,-158.5"/>
</g>
<!-- HeaderComponent -->
<g id="node6" class="node">
<title>HeaderComponent</title>
<polygon fill="#ffffb3" stroke="black" points="2114.74,-122 1993.26,-122 1993.26,-86 2114.74,-86 2114.74,-122"/>
<text text-anchor="middle" x="2054" y="-99.8" font-family="Times,serif" font-size="14.00">HeaderComponent</text>
</g>
<!-- HeaderComponent&#45;&gt;AppModule -->
<g id="edge6" class="edge">
<title>HeaderComponent&#45;&gt;AppModule</title>
<path fill="none" stroke="black" d="M2054,-122.01C2054,-138.05 2054,-159 2054,-159 2054,-159 1805.71,-159 1805.71,-159"/>
<polygon fill="black" stroke="black" points="1805.71,-155.5 1795.71,-159 1805.71,-162.5 1805.71,-155.5"/>
</g>
<!-- MainLayoutComponent -->
<g id="node7" class="node">
<title>MainLayoutComponent</title>
<polygon fill="#ffffb3" stroke="black" points="1975.04,-122 1824.96,-122 1824.96,-86 1975.04,-86 1975.04,-122"/>
<text text-anchor="middle" x="1900" y="-99.8" font-family="Times,serif" font-size="14.00">MainLayoutComponent</text>
</g>
<!-- MainLayoutComponent&#45;&gt;AppModule -->
<g id="edge7" class="edge">
<title>MainLayoutComponent&#45;&gt;AppModule</title>
<path fill="none" stroke="black" d="M1900,-122.12C1900,-136.78 1900,-155 1900,-155 1900,-155 1805.84,-155 1805.84,-155"/>
<polygon fill="black" stroke="black" points="1805.84,-151.5 1795.84,-155 1805.84,-158.5 1805.84,-151.5"/>
</g>
<!-- NgInitDirective -->
<g id="node8" class="node">
<title>NgInitDirective</title>
<polygon fill="#ffffb3" stroke="black" points="1806.13,-122 1701.87,-122 1701.87,-86 1806.13,-86 1806.13,-122"/>
<text text-anchor="middle" x="1754" y="-99.8" font-family="Times,serif" font-size="14.00">NgInitDirective</text>
</g>
<!-- NgInitDirective&#45;&gt;AppModule -->
<g id="edge8" class="edge">
<title>NgInitDirective&#45;&gt;AppModule</title>
<path fill="none" stroke="black" d="M1754,-122.11C1754,-122.11 1754,-140.99 1754,-140.99"/>
<polygon fill="black" stroke="black" points="1750.5,-140.99 1754,-150.99 1757.5,-140.99 1750.5,-140.99"/>
</g>
<!-- NgbdSortableHeaderDirective -->
<g id="node9" class="node">
<title>NgbdSortableHeaderDirective</title>
<polygon fill="#ffffb3" stroke="black" points="1684.25,-122 1497.75,-122 1497.75,-86 1684.25,-86 1684.25,-122"/>
<text text-anchor="middle" x="1591" y="-99.8" font-family="Times,serif" font-size="14.00">NgbdSortableHeaderDirective</text>
</g>
<!-- NgbdSortableHeaderDirective&#45;&gt;AppModule -->
<g id="edge9" class="edge">
<title>NgbdSortableHeaderDirective&#45;&gt;AppModule</title>
<path fill="none" stroke="black" d="M1591,-122.12C1591,-136.78 1591,-155 1591,-155 1591,-155 1702.02,-155 1702.02,-155"/>
<polygon fill="black" stroke="black" points="1702.02,-158.5 1712.02,-155 1702.02,-151.5 1702.02,-158.5"/>
</g>
<!-- PageNotFoundComponent -->
<g id="node10" class="node">
<title>PageNotFoundComponent</title>
<polygon fill="#ffffb3" stroke="black" points="1479.82,-122 1314.18,-122 1314.18,-86 1479.82,-86 1479.82,-122"/>
<text text-anchor="middle" x="1397" y="-99.8" font-family="Times,serif" font-size="14.00">PageNotFoundComponent</text>
</g>
<!-- PageNotFoundComponent&#45;&gt;AppModule -->
<g id="edge10" class="edge">
<title>PageNotFoundComponent&#45;&gt;AppModule</title>
<path fill="none" stroke="black" d="M1397,-122.01C1397,-138.05 1397,-159 1397,-159 1397,-159 1702,-159 1702,-159"/>
<polygon fill="black" stroke="black" points="1702,-162.5 1712,-159 1702,-155.5 1702,-162.5"/>
</g>
<!-- RideInformationComponent -->
<g id="node11" class="node">
<title>RideInformationComponent</title>
<polygon fill="#ffffb3" stroke="black" points="1296.14,-122 1121.86,-122 1121.86,-86 1296.14,-86 1296.14,-122"/>
<text text-anchor="middle" x="1209" y="-99.8" font-family="Times,serif" font-size="14.00">RideInformationComponent</text>
</g>
<!-- RideInformationComponent&#45;&gt;AppModule -->
<g id="edge11" class="edge">
<title>RideInformationComponent&#45;&gt;AppModule</title>
<path fill="none" stroke="black" d="M1209,-122.03C1209,-139.06 1209,-162 1209,-162 1209,-162 1702.14,-162 1702.14,-162"/>
<polygon fill="black" stroke="black" points="1702.14,-165.5 1712.14,-162 1702.14,-158.5 1702.14,-165.5"/>
</g>
<!-- StationPopupComponent -->
<g id="node12" class="node">
<title>StationPopupComponent</title>
<polygon fill="#ffffb3" stroke="black" points="1103.28,-122 946.72,-122 946.72,-86 1103.28,-86 1103.28,-122"/>
<text text-anchor="middle" x="1025" y="-99.8" font-family="Times,serif" font-size="14.00">StationPopupComponent</text>
</g>
<!-- StationPopupComponent&#45;&gt;AppModule -->
<g id="edge12" class="edge">
<title>StationPopupComponent&#45;&gt;AppModule</title>
<path fill="none" stroke="black" d="M1025,-122.27C1025,-140.56 1025,-166 1025,-166 1025,-166 1702.19,-166 1702.19,-166"/>
<polygon fill="black" stroke="black" points="1702.19,-169.5 1712.19,-166 1702.19,-162.5 1702.19,-169.5"/>
</g>
<!-- ToastsContainerComponent -->
<g id="node13" class="node">
<title>ToastsContainerComponent</title>
<polygon fill="#ffffb3" stroke="black" points="928.59,-122 755.41,-122 755.41,-86 928.59,-86 928.59,-122"/>
<text text-anchor="middle" x="842" y="-99.8" font-family="Times,serif" font-size="14.00">ToastsContainerComponent</text>
</g>
<!-- ToastsContainerComponent&#45;&gt;AppModule -->
<g id="edge13" class="edge">
<title>ToastsContainerComponent&#45;&gt;AppModule</title>
<path fill="none" stroke="black" d="M842,-122.11C842,-141.34 842,-169 842,-169 842,-169 1702.14,-169 1702.14,-169"/>
<polygon fill="black" stroke="black" points="1702.14,-172.5 1712.14,-169 1702.14,-165.5 1702.14,-172.5"/>
</g>
<!-- TrainMapComponent -->
<g id="node14" class="node">
<title>TrainMapComponent</title>
<polygon fill="#ffffb3" stroke="black" points="737.81,-122 600.19,-122 600.19,-86 737.81,-86 737.81,-122"/>
<text text-anchor="middle" x="669" y="-99.8" font-family="Times,serif" font-size="14.00">TrainMapComponent</text>
</g>
<!-- TrainMapComponent&#45;&gt;AppModule -->
<g id="edge14" class="edge">
<title>TrainMapComponent&#45;&gt;AppModule</title>
<path fill="none" stroke="black" d="M669,-122.13C669,-142.57 669,-173 669,-173 669,-173 1702.13,-173 1702.13,-173"/>
<polygon fill="black" stroke="black" points="1702.13,-176.5 1712.13,-173 1702.13,-169.5 1702.13,-176.5"/>
</g>
<!-- TrainMapSidebarComponent -->
<g id="node15" class="node">
<title>TrainMapSidebarComponent</title>
<polygon fill="#ffffb3" stroke="black" points="582.07,-122 401.93,-122 401.93,-86 582.07,-86 582.07,-122"/>
<text text-anchor="middle" x="492" y="-99.8" font-family="Times,serif" font-size="14.00">TrainMapSidebarComponent</text>
</g>
<!-- TrainMapSidebarComponent&#45;&gt;AppModule -->
<g id="edge15" class="edge">
<title>TrainMapSidebarComponent&#45;&gt;AppModule</title>
<path fill="none" stroke="black" d="M492,-122.04C492,-143.66 492,-177 492,-177 492,-177 1702.01,-177 1702.01,-177"/>
<polygon fill="black" stroke="black" points="1702.01,-180.5 1712.01,-177 1702.01,-173.5 1702.01,-180.5"/>
</g>
<!-- TrainPopupComponent -->
<g id="node16" class="node">
<title>TrainPopupComponent</title>
<polygon fill="#ffffb3" stroke="black" points="383.93,-122 236.07,-122 236.07,-86 383.93,-86 383.93,-122"/>
<text text-anchor="middle" x="310" y="-99.8" font-family="Times,serif" font-size="14.00">TrainPopupComponent</text>
</g>
<!-- TrainPopupComponent&#45;&gt;AppModule -->
<g id="edge16" class="edge">
<title>TrainPopupComponent&#45;&gt;AppModule</title>
<path fill="none" stroke="black" d="M310,-122.01C310,-144.49 310,-180 310,-180 310,-180 1702.34,-180 1702.34,-180"/>
<polygon fill="black" stroke="black" points="1702.34,-183.5 1712.34,-180 1702.34,-176.5 1702.34,-183.5"/>
</g>
<!-- TrainsetInformationComponent -->
<g id="node17" class="node">
<title>TrainsetInformationComponent</title>
<polygon fill="#ffffb3" stroke="black" points="218.07,-122 23.93,-122 23.93,-86 218.07,-86 218.07,-122"/>
<text text-anchor="middle" x="121" y="-99.8" font-family="Times,serif" font-size="14.00">TrainsetInformationComponent</text>
</g>
<!-- TrainsetInformationComponent&#45;&gt;AppModule -->
<g id="edge17" class="edge">
<title>TrainsetInformationComponent&#45;&gt;AppModule</title>
<path fill="none" stroke="black" d="M121,-122.15C121,-145.76 121,-184 121,-184 121,-184 1701.99,-184 1701.99,-184"/>
<polygon fill="black" stroke="black" points="1701.99,-187.5 1711.99,-184 1701.99,-180.5 1701.99,-187.5"/>
</g>
<!-- AppComponent  -->
<g id="node21" class="node">
<title>AppComponent </title>
<polygon fill="#80b1d3" stroke="black" points="1808.44,-252 1699.56,-252 1699.56,-216 1808.44,-216 1808.44,-252"/>
<text text-anchor="middle" x="1754" y="-229.8" font-family="Times,serif" font-size="14.00">AppComponent </text>
</g>
<!-- AppModule&#45;&gt;AppComponent  -->
<g id="edge20" class="edge">
<title>AppModule&#45;&gt;AppComponent </title>
<path fill="none" stroke="black" stroke-dasharray="1,5" d="M1754,-187.11C1754,-187.11 1754,-205.99 1754,-205.99"/>
<polygon fill="black" stroke="black" points="1750.5,-205.99 1754,-215.99 1757.5,-205.99 1750.5,-205.99"/>
</g>
<!-- AppRoutingModule -->
<g id="node19" class="node">
<title>AppRoutingModule</title>
<polygon fill="#8dd3c7" stroke="black" points="3226.27,-122 3223.27,-126 3202.27,-126 3199.27,-122 3097.73,-122 3097.73,-86 3226.27,-86 3226.27,-122"/>
<text text-anchor="middle" x="3162" y="-99.8" font-family="Times,serif" font-size="14.00">AppRoutingModule</text>
</g>
<!-- AppRoutingModule&#45;&gt;AppModule -->
<g id="edge18" class="edge">
<title>AppRoutingModule&#45;&gt;AppModule</title>
<path fill="none" stroke="black" d="M3162,-122.15C3162,-145.76 3162,-184 3162,-184 3162,-184 1805.76,-184 1805.76,-184"/>
<polygon fill="black" stroke="black" points="1805.76,-180.5 1795.76,-184 1805.76,-187.5 1805.76,-180.5"/>
</g>
<!-- TrainMapModuleModule -->
<g id="node20" class="node">
<title>TrainMapModuleModule</title>
<polygon fill="#8dd3c7" stroke="black" points="3079.58,-122 3076.58,-126 3055.58,-126 3052.58,-122 2920.42,-122 2920.42,-86 3079.58,-86 3079.58,-122"/>
<text text-anchor="middle" x="3000" y="-99.8" font-family="Times,serif" font-size="14.00">TrainMapModuleModule</text>
</g>
<!-- TrainMapModuleModule&#45;&gt;AppModule -->
<g id="edge19" class="edge">
<title>TrainMapModuleModule&#45;&gt;AppModule</title>
<path fill="none" stroke="black" d="M3000,-122.01C3000,-144.49 3000,-180 3000,-180 3000,-180 1805.81,-180 1805.81,-180"/>
<polygon fill="black" stroke="black" points="1805.81,-176.5 1795.81,-180 1805.81,-183.5 1805.81,-176.5"/>
</g>
</g>
</svg>
