<?xml version="1.0" encoding="UTF-8" standalone="no"?>
<!DOCTYPE svg PUBLIC "-//W3C//DTD SVG 1.1//EN"
 "http://www.w3.org/Graphics/SVG/1.1/DTD/svg11.dtd">
<!-- Generated by graphviz version 2.47.3 (20210619.1520)
 -->
<!-- Title: dependencies Pages: 1 -->
<svg width="3258pt" height="247pt"
 viewBox="0.00 0.00 3258.00 246.80" xmlns="http://www.w3.org/2000/svg" xmlns:xlink="http://www.w3.org/1999/xlink">
<g id="graph0" class="graph" transform="scale(1 1) rotate(0) translate(4 242.8)">
<title>dependencies</title>
<polygon fill="white" stroke="transparent" points="-4,4 -4,-242.8 3254,-242.8 3254,4 -4,4"/>
<text text-anchor="middle" x="1625" y="-8.2" font-family="sans-serif" font-size="14.00">dependencies</text>
<g id="clust1" class="cluster">
<title>cluster_AppModule</title>
<polygon fill="none" stroke="black" stroke-dasharray="1,5" points="8,-32.8 8,-230.8 3242,-230.8 3242,-32.8 8,-32.8"/>
</g>
<g id="clust20" class="cluster">
<title>cluster_AppModule_imports</title>
<polygon fill="none" stroke="black" points="2912,-40.8 2912,-92.8 3234,-92.8 3234,-40.8 2912,-40.8"/>
</g>
<g id="clust22" class="cluster">
<title>cluster_AppModule_bootstrap</title>
<polygon fill="none" stroke="black" points="1692,-170.8 1692,-222.8 1816,-222.8 1816,-170.8 1692,-170.8"/>
</g>
<g id="clust2" class="cluster">
<title>cluster_AppModule_declarations</title>
<polygon fill="none" stroke="black" points="16,-40.8 16,-92.8 2904,-92.8 2904,-40.8 16,-40.8"/>
</g>
<!-- AboutComponent -->
<g id="node1" class="node">
<title>AboutComponent</title>
<polygon fill="#ffffb3" stroke="black" points="2896.33,-84.8 2779.67,-84.8 2779.67,-48.8 2896.33,-48.8 2896.33,-84.8"/>
<text text-anchor="middle" x="2838" y="-62.6" font-family="Times,serif" font-size="14.00">AboutComponent</text>
</g>
<!-- AppModule -->
<g id="node18" class="node">
<title>AppModule</title>
<polygon fill="#8dd3c7" stroke="black" points="1795.66,-149.8 1792.66,-153.8 1771.66,-153.8 1768.66,-149.8 1712.34,-149.8 1712.34,-113.8 1795.66,-113.8 1795.66,-149.8"/>
<text text-anchor="middle" x="1754" y="-127.6" font-family="Times,serif" font-size="14.00">AppModule</text>
</g>
<!-- AboutComponent&#45;&gt;AppModule -->
<g id="edge1" class="edge">
<title>AboutComponent&#45;&gt;AppModule</title>
<path fill="none" stroke="black" d="M2838,-84.84C2838,-106.46 2838,-139.8 2838,-139.8 2838,-139.8 1805.83,-139.8 1805.83,-139.8"/>
<polygon fill="black" stroke="black" points="1805.83,-136.3 1795.83,-139.8 1805.83,-143.3 1805.83,-136.3"/>
</g>
<!-- AllStationsComponent -->
<g id="node2" class="node">
<title>AllStationsComponent</title>
<polygon fill="#ffffb3" stroke="black" points="2762.33,-84.8 2617.67,-84.8 2617.67,-48.8 2762.33,-48.8 2762.33,-84.8"/>
<text text-anchor="middle" x="2690" y="-62.6" font-family="Times,serif" font-size="14.00">AllStationsComponent</text>
</g>
<!-- AllStationsComponent&#45;&gt;AppModule -->
<g id="edge2" class="edge">
<title>AllStationsComponent&#45;&gt;AppModule</title>
<path fill="none" stroke="black" d="M2690,-84.93C2690,-105.37 2690,-135.8 2690,-135.8 2690,-135.8 1805.73,-135.8 1805.73,-135.8"/>
<polygon fill="black" stroke="black" points="1805.73,-132.3 1795.73,-135.8 1805.73,-139.3 1805.73,-132.3"/>
</g>
<!-- AppComponent -->
<g id="node3" class="node">
<title>AppComponent</title>
<polygon fill="#ffffb3" stroke="black" points="2599.94,-84.8 2494.06,-84.8 2494.06,-48.8 2599.94,-48.8 2599.94,-84.8"/>
<text text-anchor="middle" x="2547" y="-62.6" font-family="Times,serif" font-size="14.00">AppComponent</text>
</g>
<!-- AppComponent&#45;&gt;AppModule -->
<g id="edge3" class="edge">
<title>AppComponent&#45;&gt;AppModule</title>
<path fill="none" stroke="black" d="M2547,-84.91C2547,-104.14 2547,-131.8 2547,-131.8 2547,-131.8 1805.8,-131.8 1805.8,-131.8"/>
<polygon fill="black" stroke="black" points="1805.8,-128.3 1795.8,-131.8 1805.8,-135.3 1805.8,-128.3"/>
</g>
<!-- CalamityItemComponent -->
<g id="node4" class="node">
<title>CalamityItemComponent</title>
<polygon fill="#ffffb3" stroke="black" points="2476.32,-84.8 2317.68,-84.8 2317.68,-48.8 2476.32,-48.8 2476.32,-84.8"/>
<text text-anchor="middle" x="2397" y="-62.6" font-family="Times,serif" font-size="14.00">CalamityItemComponent</text>
</g>
<!-- CalamityItemComponent&#45;&gt;AppModule -->
<g id="edge4" class="edge">
<title>CalamityItemComponent&#45;&gt;AppModule</title>
<path fill="none" stroke="black" d="M2397,-85.07C2397,-103.36 2397,-128.8 2397,-128.8 2397,-128.8 1805.69,-128.8 1805.69,-128.8"/>
<polygon fill="black" stroke="black" points="1805.69,-125.3 1795.69,-128.8 1805.69,-132.3 1805.69,-125.3"/>
</g>
<!-- DisruptionItemComponent -->
<g id="node5" class="node">
<title>DisruptionItemComponent</title>
<polygon fill="#ffffb3" stroke="black" points="2299.37,-84.8 2132.63,-84.8 2132.63,-48.8 2299.37,-48.8 2299.37,-84.8"/>
<text text-anchor="middle" x="2216" y="-62.6" font-family="Times,serif" font-size="14.00">DisruptionItemComponent</text>
</g>
<!-- DisruptionItemComponent&#45;&gt;AppModule -->
<g id="edge5" class="edge">
<title>DisruptionItemComponent&#45;&gt;AppModule</title>
<path fill="none" stroke="black" d="M2216,-84.83C2216,-101.86 2216,-124.8 2216,-124.8 2216,-124.8 1805.81,-124.8 1805.81,-124.8"/>
<polygon fill="black" stroke="black" points="1805.81,-121.3 1795.81,-124.8 1805.81,-128.3 1805.81,-121.3"/>
</g>
<!-- HeaderComponent -->
<g id="node6" class="node">
<title>HeaderComponent</title>
<polygon fill="#ffffb3" stroke="black" points="2114.74,-84.8 1993.26,-84.8 1993.26,-48.8 2114.74,-48.8 2114.74,-84.8"/>
<text text-anchor="middle" x="2054" y="-62.6" font-family="Times,serif" font-size="14.00">HeaderComponent</text>
</g>
<!-- HeaderComponent&#45;&gt;AppModule -->
<g id="edge6" class="edge">
<title>HeaderComponent&#45;&gt;AppModule</title>
<path fill="none" stroke="black" d="M2054,-84.81C2054,-100.85 2054,-121.8 2054,-121.8 2054,-121.8 1805.71,-121.8 1805.71,-121.8"/>
<polygon fill="black" stroke="black" points="1805.71,-118.3 1795.71,-121.8 1805.71,-125.3 1805.71,-118.3"/>
</g>
<!-- MainLayoutComponent -->
<g id="node7" class="node">
<title>MainLayoutComponent</title>
<polygon fill="#ffffb3" stroke="black" points="1975.04,-84.8 1824.96,-84.8 1824.96,-48.8 1975.04,-48.8 1975.04,-84.8"/>
<text text-anchor="middle" x="1900" y="-62.6" font-family="Times,serif" font-size="14.00">MainLayoutComponent</text>
</g>
<!-- MainLayoutComponent&#45;&gt;AppModule -->
<g id="edge7" class="edge">
<title>MainLayoutComponent&#45;&gt;AppModule</title>
<path fill="none" stroke="black" d="M1900,-84.92C1900,-99.58 1900,-117.8 1900,-117.8 1900,-117.8 1805.84,-117.8 1805.84,-117.8"/>
<polygon fill="black" stroke="black" points="1805.84,-114.3 1795.84,-117.8 1805.84,-121.3 1805.84,-114.3"/>
</g>
<!-- NgInitDirective -->
<g id="node8" class="node">
<title>NgInitDirective</title>
<polygon fill="#ffffb3" stroke="black" points="1806.13,-84.8 1701.87,-84.8 1701.87,-48.8 1806.13,-48.8 1806.13,-84.8"/>
<text text-anchor="middle" x="1754" y="-62.6" font-family="Times,serif" font-size="14.00">NgInitDirective</text>
</g>
<!-- NgInitDirective&#45;&gt;AppModule -->
<g id="edge8" class="edge">
<title>NgInitDirective&#45;&gt;AppModule</title>
<path fill="none" stroke="black" d="M1754,-84.91C1754,-84.91 1754,-103.79 1754,-103.79"/>
<polygon fill="black" stroke="black" points="1750.5,-103.79 1754,-113.79 1757.5,-103.79 1750.5,-103.79"/>
</g>
<!-- NgbdSortableHeaderDirective -->
<g id="node9" class="node">
<title>NgbdSortableHeaderDirective</title>
<polygon fill="#ffffb3" stroke="black" points="1684.25,-84.8 1497.75,-84.8 1497.75,-48.8 1684.25,-48.8 1684.25,-84.8"/>
<text text-anchor="middle" x="1591" y="-62.6" font-family="Times,serif" font-size="14.00">NgbdSortableHeaderDirective</text>
</g>
<!-- NgbdSortableHeaderDirective&#45;&gt;AppModule -->
<g id="edge9" class="edge">
<title>NgbdSortableHeaderDirective&#45;&gt;AppModule</title>
<path fill="none" stroke="black" d="M1591,-84.92C1591,-99.58 1591,-117.8 1591,-117.8 1591,-117.8 1702.02,-117.8 1702.02,-117.8"/>
<polygon fill="black" stroke="black" points="1702.02,-121.3 1712.02,-117.8 1702.02,-114.3 1702.02,-121.3"/>
</g>
<!-- PageNotFoundComponent -->
<g id="node10" class="node">
<title>PageNotFoundComponent</title>
<polygon fill="#ffffb3" stroke="black" points="1479.82,-84.8 1314.18,-84.8 1314.18,-48.8 1479.82,-48.8 1479.82,-84.8"/>
<text text-anchor="middle" x="1397" y="-62.6" font-family="Times,serif" font-size="14.00">PageNotFoundComponent</text>
</g>
<!-- PageNotFoundComponent&#45;&gt;AppModule -->
<g id="edge10" class="edge">
<title>PageNotFoundComponent&#45;&gt;AppModule</title>
<path fill="none" stroke="black" d="M1397,-84.81C1397,-100.85 1397,-121.8 1397,-121.8 1397,-121.8 1702,-121.8 1702,-121.8"/>
<polygon fill="black" stroke="black" points="1702,-125.3 1712,-121.8 1702,-118.3 1702,-125.3"/>
</g>
<!-- RideInformationComponent -->
<g id="node11" class="node">
<title>RideInformationComponent</title>
<polygon fill="#ffffb3" stroke="black" points="1296.14,-84.8 1121.86,-84.8 1121.86,-48.8 1296.14,-48.8 1296.14,-84.8"/>
<text text-anchor="middle" x="1209" y="-62.6" font-family="Times,serif" font-size="14.00">RideInformationComponent</text>
</g>
<!-- RideInformationComponent&#45;&gt;AppModule -->
<g id="edge11" class="edge">
<title>RideInformationComponent&#45;&gt;AppModule</title>
<path fill="none" stroke="black" d="M1209,-84.83C1209,-101.86 1209,-124.8 1209,-124.8 1209,-124.8 1702.14,-124.8 1702.14,-124.8"/>
<polygon fill="black" stroke="black" points="1702.14,-128.3 1712.14,-124.8 1702.14,-121.3 1702.14,-128.3"/>
</g>
<!-- StationPopupComponent -->
<g id="node12" class="node">
<title>StationPopupComponent</title>
<polygon fill="#ffffb3" stroke="black" points="1103.28,-84.8 946.72,-84.8 946.72,-48.8 1103.28,-48.8 1103.28,-84.8"/>
<text text-anchor="middle" x="1025" y="-62.6" font-family="Times,serif" font-size="14.00">StationPopupComponent</text>
</g>
<!-- StationPopupComponent&#45;&gt;AppModule -->
<g id="edge12" class="edge">
<title>StationPopupComponent&#45;&gt;AppModule</title>
<path fill="none" stroke="black" d="M1025,-85.07C1025,-103.36 1025,-128.8 1025,-128.8 1025,-128.8 1702.19,-128.8 1702.19,-128.8"/>
<polygon fill="black" stroke="black" points="1702.19,-132.3 1712.19,-128.8 1702.19,-125.3 1702.19,-132.3"/>
</g>
<!-- ToastsContainerComponent -->
<g id="node13" class="node">
<title>ToastsContainerComponent</title>
<polygon fill="#ffffb3" stroke="black" points="928.59,-84.8 755.41,-84.8 755.41,-48.8 928.59,-48.8 928.59,-84.8"/>
<text text-anchor="middle" x="842" y="-62.6" font-family="Times,serif" font-size="14.00">ToastsContainerComponent</text>
</g>
<!-- ToastsContainerComponent&#45;&gt;AppModule -->
<g id="edge13" class="edge">
<title>ToastsContainerComponent&#45;&gt;AppModule</title>
<path fill="none" stroke="black" d="M842,-84.91C842,-104.14 842,-131.8 842,-131.8 842,-131.8 1702.14,-131.8 1702.14,-131.8"/>
<polygon fill="black" stroke="black" points="1702.14,-135.3 1712.14,-131.8 1702.14,-128.3 1702.14,-135.3"/>
</g>
<!-- TrainMapComponent -->
<g id="node14" class="node">
<title>TrainMapComponent</title>
<polygon fill="#ffffb3" stroke="black" points="737.81,-84.8 600.19,-84.8 600.19,-48.8 737.81,-48.8 737.81,-84.8"/>
<text text-anchor="middle" x="669" y="-62.6" font-family="Times,serif" font-size="14.00">TrainMapComponent</text>
</g>
<!-- TrainMapComponent&#45;&gt;AppModule -->
<g id="edge14" class="edge">
<title>TrainMapComponent&#45;&gt;AppModule</title>
<path fill="none" stroke="black" d="M669,-84.93C669,-105.37 669,-135.8 669,-135.8 669,-135.8 1702.13,-135.8 1702.13,-135.8"/>
<polygon fill="black" stroke="black" points="1702.13,-139.3 1712.13,-135.8 1702.13,-132.3 1702.13,-139.3"/>
</g>
<!-- TrainMapSidebarComponent -->
<g id="node15" class="node">
<title>TrainMapSidebarComponent</title>
<polygon fill="#ffffb3" stroke="black" points="582.07,-84.8 401.93,-84.8 401.93,-48.8 582.07,-48.8 582.07,-84.8"/>
<text text-anchor="middle" x="492" y="-62.6" font-family="Times,serif" font-size="14.00">TrainMapSidebarComponent</text>
</g>
<!-- TrainMapSidebarComponent&#45;&gt;AppModule -->
<g id="edge15" class="edge">
<title>TrainMapSidebarComponent&#45;&gt;AppModule</title>
<path fill="none" stroke="black" d="M492,-84.84C492,-106.46 492,-139.8 492,-139.8 492,-139.8 1702.01,-139.8 1702.01,-139.8"/>
<polygon fill="black" stroke="black" points="1702.01,-143.3 1712.01,-139.8 1702.01,-136.3 1702.01,-143.3"/>
</g>
<!-- TrainPopupComponent -->
<g id="node16" class="node">
<title>TrainPopupComponent</title>
<polygon fill="#ffffb3" stroke="black" points="383.93,-84.8 236.07,-84.8 236.07,-48.8 383.93,-48.8 383.93,-84.8"/>
<text text-anchor="middle" x="310" y="-62.6" font-family="Times,serif" font-size="14.00">TrainPopupComponent</text>
</g>
<!-- TrainPopupComponent&#45;&gt;AppModule -->
<g id="edge16" class="edge">
<title>TrainPopupComponent&#45;&gt;AppModule</title>
<path fill="none" stroke="black" d="M310,-84.81C310,-107.29 310,-142.8 310,-142.8 310,-142.8 1702.34,-142.8 1702.34,-142.8"/>
<polygon fill="black" stroke="black" points="1702.34,-146.3 1712.34,-142.8 1702.34,-139.3 1702.34,-146.3"/>
</g>
<!-- TrainsetInformationComponent -->
<g id="node17" class="node">
<title>TrainsetInformationComponent</title>
<polygon fill="#ffffb3" stroke="black" points="218.07,-84.8 23.93,-84.8 23.93,-48.8 218.07,-48.8 218.07,-84.8"/>
<text text-anchor="middle" x="121" y="-62.6" font-family="Times,serif" font-size="14.00">TrainsetInformationComponent</text>
</g>
<!-- TrainsetInformationComponent&#45;&gt;AppModule -->
<g id="edge17" class="edge">
<title>TrainsetInformationComponent&#45;&gt;AppModule</title>
<path fill="none" stroke="black" d="M121,-84.95C121,-108.56 121,-146.8 121,-146.8 121,-146.8 1701.99,-146.8 1701.99,-146.8"/>
<polygon fill="black" stroke="black" points="1701.99,-150.3 1711.99,-146.8 1701.99,-143.3 1701.99,-150.3"/>
</g>
<!-- AppComponent  -->
<g id="node21" class="node">
<title>AppComponent </title>
<polygon fill="#80b1d3" stroke="black" points="1808.44,-214.8 1699.56,-214.8 1699.56,-178.8 1808.44,-178.8 1808.44,-214.8"/>
<text text-anchor="middle" x="1754" y="-192.6" font-family="Times,serif" font-size="14.00">AppComponent </text>
</g>
<!-- AppModule&#45;&gt;AppComponent  -->
<g id="edge20" class="edge">
<title>AppModule&#45;&gt;AppComponent </title>
<path fill="none" stroke="black" stroke-dasharray="1,5" d="M1754,-149.91C1754,-149.91 1754,-168.79 1754,-168.79"/>
<polygon fill="black" stroke="black" points="1750.5,-168.79 1754,-178.79 1757.5,-168.79 1750.5,-168.79"/>
</g>
<!-- AppRoutingModule -->
<g id="node19" class="node">
<title>AppRoutingModule</title>
<polygon fill="#8dd3c7" stroke="black" points="3226.27,-84.8 3223.27,-88.8 3202.27,-88.8 3199.27,-84.8 3097.73,-84.8 3097.73,-48.8 3226.27,-48.8 3226.27,-84.8"/>
<text text-anchor="middle" x="3162" y="-62.6" font-family="Times,serif" font-size="14.00">AppRoutingModule</text>
</g>
<!-- AppRoutingModule&#45;&gt;AppModule -->
<g id="edge18" class="edge">
<title>AppRoutingModule&#45;&gt;AppModule</title>
<path fill="none" stroke="black" d="M3162,-84.95C3162,-108.56 3162,-146.8 3162,-146.8 3162,-146.8 1805.76,-146.8 1805.76,-146.8"/>
<polygon fill="black" stroke="black" points="1805.76,-143.3 1795.76,-146.8 1805.76,-150.3 1805.76,-143.3"/>
</g>
<!-- TrainMapModuleModule -->
<g id="node20" class="node">
<title>TrainMapModuleModule</title>
<polygon fill="#8dd3c7" stroke="black" points="3079.58,-84.8 3076.58,-88.8 3055.58,-88.8 3052.58,-84.8 2920.42,-84.8 2920.42,-48.8 3079.58,-48.8 3079.58,-84.8"/>
<text text-anchor="middle" x="3000" y="-62.6" font-family="Times,serif" font-size="14.00">TrainMapModuleModule</text>
</g>
<!-- TrainMapModuleModule&#45;&gt;AppModule -->
<g id="edge19" class="edge">
<title>TrainMapModuleModule&#45;&gt;AppModule</title>
<path fill="none" stroke="black" d="M3000,-84.81C3000,-107.29 3000,-142.8 3000,-142.8 3000,-142.8 1805.81,-142.8 1805.81,-142.8"/>
<polygon fill="black" stroke="black" points="1805.81,-139.3 1795.81,-142.8 1805.81,-146.3 1805.81,-139.3"/>
</g>
</g>
</svg>
