<?xml version="1.0" encoding="UTF-8" standalone="no"?>
<!DOCTYPE svg PUBLIC "-//W3C//DTD SVG 1.1//EN"
 "http://www.w3.org/Graphics/SVG/1.1/DTD/svg11.dtd">
<!-- Generated by graphviz version 2.40.1 (20161225.0304)
 -->
<!-- Title: dependencies Pages: 1 -->
<svg width="2044pt" height="284pt"
 viewBox="0.00 0.00 2044.00 284.00" xmlns="http://www.w3.org/2000/svg" xmlns:xlink="http://www.w3.org/1999/xlink">
<g id="graph0" class="graph" transform="scale(1 1) rotate(0) translate(4 280)">
<title>dependencies</title>
<polygon fill="#ffffff" stroke="transparent" points="-4,4 -4,-280 2040,-280 2040,4 -4,4"/>
<text text-anchor="start" x="997.0091" y="-42.4" font-family="sans-serif" font-weight="bold" font-size="14.00" fill="#000000">Legend</text>
<polygon fill="#ffffb3" stroke="transparent" points="784,-10 784,-30 804,-30 804,-10 784,-10"/>
<text text-anchor="start" x="807.629" y="-15.4" font-family="sans-serif" font-size="14.00" fill="#000000"> &#160;Declarations</text>
<polygon fill="#8dd3c7" stroke="transparent" points="897,-10 897,-30 917,-30 917,-10 897,-10"/>
<text text-anchor="start" x="920.7251" y="-15.4" font-family="sans-serif" font-size="14.00" fill="#000000"> &#160;Module</text>
<polygon fill="#80b1d3" stroke="transparent" points="983,-10 983,-30 1003,-30 1003,-10 983,-10"/>
<text text-anchor="start" x="1006.7812" y="-15.4" font-family="sans-serif" font-size="14.00" fill="#000000"> &#160;Bootstrap</text>
<polygon fill="#fdb462" stroke="transparent" points="1080,-10 1080,-30 1100,-30 1100,-10 1080,-10"/>
<text text-anchor="start" x="1103.6732" y="-15.4" font-family="sans-serif" font-size="14.00" fill="#000000"> &#160;Providers</text>
<polygon fill="#fb8072" stroke="transparent" points="1176,-10 1176,-30 1196,-30 1196,-10 1176,-10"/>
<text text-anchor="start" x="1199.7258" y="-15.4" font-family="sans-serif" font-size="14.00" fill="#000000"> &#160;Exports</text>
<g id="clust1" class="cluster">
<title>cluster_AppModule</title>
<polygon fill="none" stroke="#000000" stroke-dasharray="1,5" points="8,-70 8,-268 2028,-268 2028,-70 8,-70"/>
</g>
<g id="clust2" class="cluster">
<title>cluster_AppModule_declarations</title>
<polygon fill="none" stroke="#000000" points="168,-78 168,-130 2020,-130 2020,-78 168,-78"/>
</g>
<g id="clust14" class="cluster">
<title>cluster_AppModule_imports</title>
<polygon fill="none" stroke="#000000" points="16,-78 16,-130 160,-130 160,-78 16,-78"/>
</g>
<g id="clust16" class="cluster">
<title>cluster_AppModule_bootstrap</title>
<polygon fill="none" stroke="#000000" points="995,-208 995,-260 1119,-260 1119,-208 995,-208"/>
</g>
<!-- AllStationsComponent -->
<g id="node1" class="node">
<title>AllStationsComponent</title>
<polygon fill="#ffffb3" stroke="#000000" points="2012.3342,-122 1867.6658,-122 1867.6658,-86 2012.3342,-86 2012.3342,-122"/>
<text text-anchor="middle" x="1940" y="-99.8" font-family="Times,serif" font-size="14.00" fill="#000000">AllStationsComponent</text>
</g>
<!-- AppModule -->
<g id="node12" class="node">
<title>AppModule</title>
<polygon fill="#8dd3c7" stroke="#000000" points="1098.6571,-187 1095.6571,-191 1074.6571,-191 1071.6571,-187 1015.3429,-187 1015.3429,-151 1098.6571,-151 1098.6571,-187"/>
<text text-anchor="middle" x="1057" y="-164.8" font-family="Times,serif" font-size="14.00" fill="#000000">AppModule</text>
</g>
<!-- AllStationsComponent&#45;&gt;AppModule -->
<g id="edge1" class="edge">
<title>AllStationsComponent&#45;&gt;AppModule</title>
<path fill="none" stroke="#000000" d="M1940,-122.2479C1940,-145.0179 1940,-181 1940,-181 1940,-181 1108.6993,-181 1108.6993,-181"/>
<polygon fill="#000000" stroke="#000000" points="1108.6993,-177.5001 1098.6993,-181 1108.6992,-184.5001 1108.6993,-177.5001"/>
</g>
<!-- AppComponent -->
<g id="node2" class="node">
<title>AppComponent</title>
<polygon fill="#ffffb3" stroke="#000000" points="1849.9399,-122 1744.0601,-122 1744.0601,-86 1849.9399,-86 1849.9399,-122"/>
<text text-anchor="middle" x="1797" y="-99.8" font-family="Times,serif" font-size="14.00" fill="#000000">AppComponent</text>
</g>
<!-- AppComponent&#45;&gt;AppModule -->
<g id="edge2" class="edge">
<title>AppComponent&#45;&gt;AppModule</title>
<path fill="none" stroke="#000000" d="M1797,-122.2843C1797,-143.3211 1797,-175 1797,-175 1797,-175 1108.9059,-175 1108.9059,-175"/>
<polygon fill="#000000" stroke="#000000" points="1108.9059,-171.5001 1098.9059,-175 1108.9058,-178.5001 1108.9059,-171.5001"/>
</g>
<!-- CalamityItemComponent -->
<g id="node3" class="node">
<title>CalamityItemComponent</title>
<polygon fill="#ffffb3" stroke="#000000" points="1726.3173,-122 1567.6827,-122 1567.6827,-86 1726.3173,-86 1726.3173,-122"/>
<text text-anchor="middle" x="1647" y="-99.8" font-family="Times,serif" font-size="14.00" fill="#000000">CalamityItemComponent</text>
</g>
<!-- CalamityItemComponent&#45;&gt;AppModule -->
<g id="edge3" class="edge">
<title>CalamityItemComponent&#45;&gt;AppModule</title>
<path fill="none" stroke="#000000" d="M1647,-122.1061C1647,-141.3391 1647,-169 1647,-169 1647,-169 1108.9584,-169 1108.9584,-169"/>
<polygon fill="#000000" stroke="#000000" points="1108.9584,-165.5001 1098.9584,-169 1108.9583,-172.5001 1108.9584,-165.5001"/>
</g>
<!-- DisruptionItemComponent -->
<g id="node4" class="node">
<title>DisruptionItemComponent</title>
<polygon fill="#ffffb3" stroke="#000000" points="1549.3724,-122 1382.6276,-122 1382.6276,-86 1549.3724,-86 1549.3724,-122"/>
<text text-anchor="middle" x="1466" y="-99.8" font-family="Times,serif" font-size="14.00" fill="#000000">DisruptionItemComponent</text>
</g>
<!-- DisruptionItemComponent&#45;&gt;AppModule -->
<g id="edge4" class="edge">
<title>DisruptionItemComponent&#45;&gt;AppModule</title>
<path fill="none" stroke="#000000" d="M1466,-122.0225C1466,-139.3734 1466,-163 1466,-163 1466,-163 1108.8481,-163 1108.8481,-163"/>
<polygon fill="#000000" stroke="#000000" points="1108.8481,-159.5001 1098.8481,-163 1108.8481,-166.5001 1108.8481,-159.5001"/>
</g>
<!-- HeaderComponent -->
<g id="node5" class="node">
<title>HeaderComponent</title>
<polygon fill="#ffffb3" stroke="#000000" points="1364.7437,-122 1243.2563,-122 1243.2563,-86 1364.7437,-86 1364.7437,-122"/>
<text text-anchor="middle" x="1304" y="-99.8" font-family="Times,serif" font-size="14.00" fill="#000000">HeaderComponent</text>
</g>
<!-- HeaderComponent&#45;&gt;AppModule -->
<g id="edge5" class="edge">
<title>HeaderComponent&#45;&gt;AppModule</title>
<path fill="none" stroke="#000000" d="M1304,-122.2396C1304,-137.5706 1304,-157 1304,-157 1304,-157 1108.9002,-157 1108.9002,-157"/>
<polygon fill="#000000" stroke="#000000" points="1108.9002,-153.5001 1098.9002,-157 1108.9001,-160.5001 1108.9002,-153.5001"/>
</g>
<!-- MainLayoutComponent -->
<g id="node6" class="node">
<title>MainLayoutComponent</title>
<polygon fill="#ffffb3" stroke="#000000" points="1225.0407,-122 1074.9593,-122 1074.9593,-86 1225.0407,-86 1225.0407,-122"/>
<text text-anchor="middle" x="1150" y="-99.8" font-family="Times,serif" font-size="14.00" fill="#000000">MainLayoutComponent</text>
</g>
<!-- MainLayoutComponent&#45;&gt;AppModule -->
<g id="edge6" class="edge">
<title>MainLayoutComponent&#45;&gt;AppModule</title>
<path fill="none" stroke="#000000" d="M1086.7791,-122.1061C1086.7791,-122.1061 1086.7791,-140.991 1086.7791,-140.991"/>
<polygon fill="#000000" stroke="#000000" points="1083.2792,-140.9909 1086.7791,-150.991 1090.2792,-140.991 1083.2792,-140.9909"/>
</g>
<!-- NgbdSortableHeaderDirective -->
<g id="node7" class="node">
<title>NgbdSortableHeaderDirective</title>
<polygon fill="#ffffb3" stroke="#000000" points="1057.2542,-122 870.7458,-122 870.7458,-86 1057.2542,-86 1057.2542,-122"/>
<text text-anchor="middle" x="964" y="-99.8" font-family="Times,serif" font-size="14.00" fill="#000000">NgbdSortableHeaderDirective</text>
</g>
<!-- NgbdSortableHeaderDirective&#45;&gt;AppModule -->
<g id="edge7" class="edge">
<title>NgbdSortableHeaderDirective&#45;&gt;AppModule</title>
<path fill="none" stroke="#000000" d="M1036.1494,-122.1061C1036.1494,-122.1061 1036.1494,-140.991 1036.1494,-140.991"/>
<polygon fill="#000000" stroke="#000000" points="1032.6495,-140.9909 1036.1494,-150.991 1039.6495,-140.991 1032.6495,-140.9909"/>
</g>
<!-- StationPopupComponent -->
<g id="node8" class="node">
<title>StationPopupComponent</title>
<polygon fill="#ffffb3" stroke="#000000" points="852.2841,-122 695.7159,-122 695.7159,-86 852.2841,-86 852.2841,-122"/>
<text text-anchor="middle" x="774" y="-99.8" font-family="Times,serif" font-size="14.00" fill="#000000">StationPopupComponent</text>
</g>
<!-- StationPopupComponent&#45;&gt;AppModule -->
<g id="edge8" class="edge">
<title>StationPopupComponent&#45;&gt;AppModule</title>
<path fill="none" stroke="#000000" d="M774,-122.2396C774,-137.5706 774,-157 774,-157 774,-157 1005.2424,-157 1005.2424,-157"/>
<polygon fill="#000000" stroke="#000000" points="1005.2424,-160.5001 1015.2424,-157 1005.2423,-153.5001 1005.2424,-160.5001"/>
</g>
<!-- TrainMapComponent -->
<g id="node9" class="node">
<title>TrainMapComponent</title>
<polygon fill="#ffffb3" stroke="#000000" points="677.8104,-122 540.1896,-122 540.1896,-86 677.8104,-86 677.8104,-122"/>
<text text-anchor="middle" x="609" y="-99.8" font-family="Times,serif" font-size="14.00" fill="#000000">TrainMapComponent</text>
</g>
<!-- TrainMapComponent&#45;&gt;AppModule -->
<g id="edge9" class="edge">
<title>TrainMapComponent&#45;&gt;AppModule</title>
<path fill="none" stroke="#000000" d="M609,-122.0225C609,-139.3734 609,-163 609,-163 609,-163 1005.2555,-163 1005.2555,-163"/>
<polygon fill="#000000" stroke="#000000" points="1005.2556,-166.5001 1015.2555,-163 1005.2555,-159.5001 1005.2556,-166.5001"/>
</g>
<!-- TrainMapSidebarComponent -->
<g id="node10" class="node">
<title>TrainMapSidebarComponent</title>
<polygon fill="#ffffb3" stroke="#000000" points="522.073,-122 341.927,-122 341.927,-86 522.073,-86 522.073,-122"/>
<text text-anchor="middle" x="432" y="-99.8" font-family="Times,serif" font-size="14.00" fill="#000000">TrainMapSidebarComponent</text>
</g>
<!-- TrainMapSidebarComponent&#45;&gt;AppModule -->
<g id="edge10" class="edge">
<title>TrainMapSidebarComponent&#45;&gt;AppModule</title>
<path fill="none" stroke="#000000" d="M432,-122.1061C432,-141.3391 432,-169 432,-169 432,-169 1005.0215,-169 1005.0215,-169"/>
<polygon fill="#000000" stroke="#000000" points="1005.0215,-172.5001 1015.0215,-169 1005.0215,-165.5001 1005.0215,-172.5001"/>
</g>
<!-- TrainPopupComponent -->
<g id="node11" class="node">
<title>TrainPopupComponent</title>
<polygon fill="#ffffb3" stroke="#000000" points="323.934,-122 176.066,-122 176.066,-86 323.934,-86 323.934,-122"/>
<text text-anchor="middle" x="250" y="-99.8" font-family="Times,serif" font-size="14.00" fill="#000000">TrainPopupComponent</text>
</g>
<!-- TrainPopupComponent&#45;&gt;AppModule -->
<g id="edge11" class="edge">
<title>TrainPopupComponent&#45;&gt;AppModule</title>
<path fill="none" stroke="#000000" d="M250,-122.2843C250,-143.3211 250,-175 250,-175 250,-175 1005.3115,-175 1005.3115,-175"/>
<polygon fill="#000000" stroke="#000000" points="1005.3116,-178.5001 1015.3115,-175 1005.3115,-171.5001 1005.3116,-178.5001"/>
</g>
<!-- AppComponent  -->
<g id="node14" class="node">
<title>AppComponent </title>
<polygon fill="#80b1d3" stroke="#000000" points="1111.439,-252 1002.561,-252 1002.561,-216 1111.439,-216 1111.439,-252"/>
<text text-anchor="middle" x="1057" y="-229.8" font-family="Times,serif" font-size="14.00" fill="#000000">AppComponent </text>
</g>
<!-- AppModule&#45;&gt;AppComponent  -->
<g id="edge13" class="edge">
<title>AppModule&#45;&gt;AppComponent </title>
<path fill="none" stroke="#000000" stroke-dasharray="1,5" d="M1057,-187.1061C1057,-187.1061 1057,-205.991 1057,-205.991"/>
<polygon fill="#000000" stroke="#000000" points="1053.5001,-205.9909 1057,-215.991 1060.5001,-205.991 1053.5001,-205.9909"/>
</g>
<!-- AppRoutingModule -->
<g id="node13" class="node">
<title>AppRoutingModule</title>
<polygon fill="#8dd3c7" stroke="#000000" points="152.2744,-122 149.2744,-126 128.2744,-126 125.2744,-122 23.7256,-122 23.7256,-86 152.2744,-86 152.2744,-122"/>
<text text-anchor="middle" x="88" y="-99.8" font-family="Times,serif" font-size="14.00" fill="#000000">AppRoutingModule</text>
</g>
<!-- AppRoutingModule&#45;&gt;AppModule -->
<g id="edge12" class="edge">
<title>AppRoutingModule&#45;&gt;AppModule</title>
<path fill="none" stroke="#000000" d="M88,-122.2479C88,-145.0179 88,-181 88,-181 88,-181 1005.0523,-181 1005.0523,-181"/>
<polygon fill="#000000" stroke="#000000" points="1005.0523,-184.5001 1015.0523,-181 1005.0522,-177.5001 1005.0523,-184.5001"/>
</g>
</g>
</svg>
