<?xml version="1.0" encoding="UTF-8" standalone="no"?>
<!DOCTYPE svg PUBLIC "-//W3C//DTD SVG 1.1//EN"
 "http://www.w3.org/Graphics/SVG/1.1/DTD/svg11.dtd">
<!-- Generated by graphviz version 2.40.1 (20161225.0304)
 -->
<!-- Title: dependencies Pages: 1 -->
<svg width="684pt" height="284pt"
 viewBox="0.00 0.00 684.00 284.00" xmlns="http://www.w3.org/2000/svg" xmlns:xlink="http://www.w3.org/1999/xlink">
<g id="graph0" class="graph" transform="scale(1 1) rotate(0) translate(4 280)">
<title>dependencies</title>
<polygon fill="#ffffff" stroke="transparent" points="-4,4 -4,-280 680,-280 680,4 -4,4"/>
<text text-anchor="start" x="317.0091" y="-42.4" font-family="sans-serif" font-weight="bold" font-size="14.00" fill="#000000">Legend</text>
<polygon fill="#ffffb3" stroke="transparent" points="104,-10 104,-30 124,-30 124,-10 104,-10"/>
<text text-anchor="start" x="127.629" y="-15.4" font-family="sans-serif" font-size="14.00" fill="#000000"> &#160;Declarations</text>
<polygon fill="#8dd3c7" stroke="transparent" points="217,-10 217,-30 237,-30 237,-10 217,-10"/>
<text text-anchor="start" x="240.7251" y="-15.4" font-family="sans-serif" font-size="14.00" fill="#000000"> &#160;Module</text>
<polygon fill="#80b1d3" stroke="transparent" points="303,-10 303,-30 323,-30 323,-10 303,-10"/>
<text text-anchor="start" x="326.7812" y="-15.4" font-family="sans-serif" font-size="14.00" fill="#000000"> &#160;Bootstrap</text>
<polygon fill="#fdb462" stroke="transparent" points="400,-10 400,-30 420,-30 420,-10 400,-10"/>
<text text-anchor="start" x="423.6732" y="-15.4" font-family="sans-serif" font-size="14.00" fill="#000000"> &#160;Providers</text>
<polygon fill="#fb8072" stroke="transparent" points="496,-10 496,-30 516,-30 516,-10 496,-10"/>
<text text-anchor="start" x="519.7258" y="-15.4" font-family="sans-serif" font-size="14.00" fill="#000000"> &#160;Exports</text>
<g id="clust1" class="cluster">
<title>cluster_AppModule</title>
<polygon fill="none" stroke="#000000" stroke-dasharray="1,5" points="8,-70 8,-268 668,-268 668,-70 8,-70"/>
</g>
<g id="clust2" class="cluster">
<title>cluster_AppModule_declarations</title>
<polygon fill="none" stroke="#000000" points="168,-78 168,-130 660,-130 660,-78 168,-78"/>
</g>
<g id="clust6" class="cluster">
<title>cluster_AppModule_imports</title>
<polygon fill="none" stroke="#000000" points="16,-78 16,-130 160,-130 160,-78 16,-78"/>
</g>
<g id="clust8" class="cluster">
<title>cluster_AppModule_bootstrap</title>
<polygon fill="none" stroke="#000000" points="280,-208 280,-260 404,-260 404,-208 280,-208"/>
</g>
<!-- AppComponent -->
<g id="node1" class="node">
<title>AppComponent</title>
<polygon fill="#ffffb3" stroke="#000000" points="651.9399,-122 546.0601,-122 546.0601,-86 651.9399,-86 651.9399,-122"/>
<text text-anchor="middle" x="599" y="-99.8" font-family="Times,serif" font-size="14.00" fill="#000000">AppComponent</text>
</g>
<!-- AppModule -->
<g id="node4" class="node">
<title>AppModule</title>
<polygon fill="#8dd3c7" stroke="#000000" points="383.6571,-187 380.6571,-191 359.6571,-191 356.6571,-187 300.3429,-187 300.3429,-151 383.6571,-151 383.6571,-187"/>
<text text-anchor="middle" x="342" y="-164.8" font-family="Times,serif" font-size="14.00" fill="#000000">AppModule</text>
</g>
<!-- AppComponent&#45;&gt;AppModule -->
<g id="edge1" class="edge">
<title>AppComponent&#45;&gt;AppModule</title>
<path fill="none" stroke="#000000" d="M599,-122.1061C599,-141.3391 599,-169 599,-169 599,-169 393.8635,-169 393.8635,-169"/>
<polygon fill="#000000" stroke="#000000" points="393.8635,-165.5001 383.8635,-169 393.8634,-172.5001 393.8635,-165.5001"/>
</g>
<!-- NgbdSortableHeaderDirective -->
<g id="node2" class="node">
<title>NgbdSortableHeaderDirective</title>
<polygon fill="#ffffb3" stroke="#000000" points="528.2542,-122 341.7458,-122 341.7458,-86 528.2542,-86 528.2542,-122"/>
<text text-anchor="middle" x="435" y="-99.8" font-family="Times,serif" font-size="14.00" fill="#000000">NgbdSortableHeaderDirective</text>
</g>
<!-- NgbdSortableHeaderDirective&#45;&gt;AppModule -->
<g id="edge2" class="edge">
<title>NgbdSortableHeaderDirective&#45;&gt;AppModule</title>
<path fill="none" stroke="#000000" d="M362.8506,-122.1061C362.8506,-122.1061 362.8506,-140.991 362.8506,-140.991"/>
<polygon fill="#000000" stroke="#000000" points="359.3507,-140.9909 362.8506,-150.991 366.3507,-140.991 359.3507,-140.9909"/>
</g>
<!-- TrainPopupComponent -->
<g id="node3" class="node">
<title>TrainPopupComponent</title>
<polygon fill="#ffffb3" stroke="#000000" points="323.934,-122 176.066,-122 176.066,-86 323.934,-86 323.934,-122"/>
<text text-anchor="middle" x="250" y="-99.8" font-family="Times,serif" font-size="14.00" fill="#000000">TrainPopupComponent</text>
</g>
<!-- TrainPopupComponent&#45;&gt;AppModule -->
<g id="edge3" class="edge">
<title>TrainPopupComponent&#45;&gt;AppModule</title>
<path fill="none" stroke="#000000" d="M311.9443,-122.1061C311.9443,-122.1061 311.9443,-140.991 311.9443,-140.991"/>
<polygon fill="#000000" stroke="#000000" points="308.4443,-140.9909 311.9443,-150.991 315.4443,-140.991 308.4443,-140.9909"/>
</g>
<!-- AppComponent  -->
<g id="node6" class="node">
<title>AppComponent </title>
<polygon fill="#80b1d3" stroke="#000000" points="396.439,-252 287.561,-252 287.561,-216 396.439,-216 396.439,-252"/>
<text text-anchor="middle" x="342" y="-229.8" font-family="Times,serif" font-size="14.00" fill="#000000">AppComponent </text>
</g>
<!-- AppModule&#45;&gt;AppComponent  -->
<g id="edge5" class="edge">
<title>AppModule&#45;&gt;AppComponent </title>
<path fill="none" stroke="#000000" stroke-dasharray="1,5" d="M342,-187.1061C342,-187.1061 342,-205.991 342,-205.991"/>
<polygon fill="#000000" stroke="#000000" points="338.5001,-205.9909 342,-215.991 345.5001,-205.991 338.5001,-205.9909"/>
</g>
<!-- AppRoutingModule -->
<g id="node5" class="node">
<title>AppRoutingModule</title>
<polygon fill="#8dd3c7" stroke="#000000" points="152.2744,-122 149.2744,-126 128.2744,-126 125.2744,-122 23.7256,-122 23.7256,-86 152.2744,-86 152.2744,-122"/>
<text text-anchor="middle" x="88" y="-99.8" font-family="Times,serif" font-size="14.00" fill="#000000">AppRoutingModule</text>
</g>
<!-- AppRoutingModule&#45;&gt;AppModule -->
<g id="edge4" class="edge">
<title>AppRoutingModule&#45;&gt;AppModule</title>
<path fill="none" stroke="#000000" d="M88,-122.1061C88,-141.3391 88,-169 88,-169 88,-169 290.3415,-169 290.3415,-169"/>
<polygon fill="#000000" stroke="#000000" points="290.3415,-172.5001 300.3415,-169 290.3415,-165.5001 290.3415,-172.5001"/>
</g>
</g>
</svg>
